<mxfile host="app.diagrams.net" modified="2024-01-02T14:20:38.162Z" agent="Mozilla/5.0 (Windows NT 10.0; Win64; x64) AppleWebKit/537.36 (KHTML, like Gecko) Chrome/120.0.0.0 Safari/537.36" etag="JiEoGjTq2yUZiPTdt3mL" version="22.1.16" type="device">
  <diagram name="Page-1" id="2YBvvXClWsGukQMizWep">
    <mxGraphModel dx="1073" dy="503" grid="1" gridSize="10" guides="1" tooltips="1" connect="1" arrows="1" fold="1" page="1" pageScale="1" pageWidth="850" pageHeight="1100" math="0" shadow="0">
      <root>
        <mxCell id="0" />
        <mxCell id="1" parent="0" />
        <mxCell id="8bf6KjgSrJrVRL6QDgUB-10" value="" style="shape=umlLifeline;perimeter=lifelinePerimeter;whiteSpace=wrap;html=1;container=1;dropTarget=0;collapsible=0;recursiveResize=0;outlineConnect=0;portConstraint=eastwest;newEdgeStyle={&quot;curved&quot;:0,&quot;rounded&quot;:0};participant=umlActor;" vertex="1" parent="1">
          <mxGeometry x="120" y="50" width="20" height="320" as="geometry" />
        </mxCell>
        <mxCell id="8bf6KjgSrJrVRL6QDgUB-14" value="" style="html=1;points=[[0,0,0,0,5],[0,1,0,0,-5],[1,0,0,0,5],[1,1,0,0,-5]];perimeter=orthogonalPerimeter;outlineConnect=0;targetShapes=umlLifeline;portConstraint=eastwest;newEdgeStyle={&quot;curved&quot;:0,&quot;rounded&quot;:0};" vertex="1" parent="8bf6KjgSrJrVRL6QDgUB-10">
          <mxGeometry x="5" y="60" width="10" height="80" as="geometry" />
        </mxCell>
        <mxCell id="8bf6KjgSrJrVRL6QDgUB-15" value="&amp;nbsp; &amp;nbsp; &amp;nbsp;Login Page" style="shape=umlLifeline;perimeter=lifelinePerimeter;whiteSpace=wrap;html=1;container=1;dropTarget=0;collapsible=0;recursiveResize=0;outlineConnect=0;portConstraint=eastwest;newEdgeStyle={&quot;curved&quot;:0,&quot;rounded&quot;:0};participant=umlBoundary;align=center;" vertex="1" parent="1">
          <mxGeometry x="230" y="50" width="100" height="320" as="geometry" />
        </mxCell>
        <mxCell id="8bf6KjgSrJrVRL6QDgUB-16" value="" style="html=1;points=[[0,0,0,0,5],[0,1,0,0,-5],[1,0,0,0,5],[1,1,0,0,-5]];perimeter=orthogonalPerimeter;outlineConnect=0;targetShapes=umlLifeline;portConstraint=eastwest;newEdgeStyle={&quot;curved&quot;:0,&quot;rounded&quot;:0};" vertex="1" parent="8bf6KjgSrJrVRL6QDgUB-15">
          <mxGeometry x="45" y="80" width="10" height="80" as="geometry" />
        </mxCell>
        <mxCell id="8bf6KjgSrJrVRL6QDgUB-18" style="edgeStyle=orthogonalEdgeStyle;rounded=0;orthogonalLoop=1;jettySize=auto;html=1;curved=0;exitX=1;exitY=0;exitDx=0;exitDy=5;exitPerimeter=0;entryX=0;entryY=0;entryDx=0;entryDy=5;entryPerimeter=0;" edge="1" parent="1" source="8bf6KjgSrJrVRL6QDgUB-14" target="8bf6KjgSrJrVRL6QDgUB-16">
          <mxGeometry relative="1" as="geometry">
            <Array as="points">
              <mxPoint x="135" y="135" />
            </Array>
          </mxGeometry>
        </mxCell>
        <mxCell id="8bf6KjgSrJrVRL6QDgUB-22" value="email, pass" style="text;html=1;strokeColor=none;fillColor=none;align=center;verticalAlign=middle;whiteSpace=wrap;rounded=0;" vertex="1" parent="1">
          <mxGeometry x="170" y="110" width="70" height="30" as="geometry" />
        </mxCell>
        <mxCell id="8bf6KjgSrJrVRL6QDgUB-23" value="login_controll" style="shape=umlLifeline;perimeter=lifelinePerimeter;whiteSpace=wrap;html=1;container=1;dropTarget=0;collapsible=0;recursiveResize=0;outlineConnect=0;portConstraint=eastwest;newEdgeStyle={&quot;curved&quot;:0,&quot;rounded&quot;:0};participant=umlControl;" vertex="1" parent="1">
          <mxGeometry x="380" y="50" width="90" height="320" as="geometry" />
        </mxCell>
        <mxCell id="8bf6KjgSrJrVRL6QDgUB-24" value="" style="html=1;points=[[0,0,0,0,5],[0,1,0,0,-5],[1,0,0,0,5],[1,1,0,0,-5]];perimeter=orthogonalPerimeter;outlineConnect=0;targetShapes=umlLifeline;portConstraint=eastwest;newEdgeStyle={&quot;curved&quot;:0,&quot;rounded&quot;:0};" vertex="1" parent="8bf6KjgSrJrVRL6QDgUB-23">
          <mxGeometry x="40" y="95" width="10" height="80" as="geometry" />
        </mxCell>
        <mxCell id="8bf6KjgSrJrVRL6QDgUB-25" value="Verification()" style="text;html=1;strokeColor=none;fillColor=none;align=center;verticalAlign=middle;whiteSpace=wrap;rounded=0;" vertex="1" parent="1">
          <mxGeometry x="320" y="120" width="70" height="30" as="geometry" />
        </mxCell>
        <mxCell id="8bf6KjgSrJrVRL6QDgUB-26" style="edgeStyle=orthogonalEdgeStyle;rounded=0;orthogonalLoop=1;jettySize=auto;html=1;curved=0;exitX=1;exitY=0;exitDx=0;exitDy=5;exitPerimeter=0;" edge="1" parent="1" source="8bf6KjgSrJrVRL6QDgUB-16" target="8bf6KjgSrJrVRL6QDgUB-24">
          <mxGeometry relative="1" as="geometry">
            <Array as="points">
              <mxPoint x="285" y="150" />
            </Array>
          </mxGeometry>
        </mxCell>
        <mxCell id="8bf6KjgSrJrVRL6QDgUB-27" value="siswa_db" style="shape=umlLifeline;perimeter=lifelinePerimeter;whiteSpace=wrap;html=1;container=1;dropTarget=0;collapsible=0;recursiveResize=0;outlineConnect=0;portConstraint=eastwest;newEdgeStyle={&quot;curved&quot;:0,&quot;rounded&quot;:0};participant=umlEntity;" vertex="1" parent="1">
          <mxGeometry x="530" y="50" width="70" height="320" as="geometry" />
        </mxCell>
        <mxCell id="8bf6KjgSrJrVRL6QDgUB-28" value="" style="html=1;points=[[0,0,0,0,5],[0,1,0,0,-5],[1,0,0,0,5],[1,1,0,0,-5]];perimeter=orthogonalPerimeter;outlineConnect=0;targetShapes=umlLifeline;portConstraint=eastwest;newEdgeStyle={&quot;curved&quot;:0,&quot;rounded&quot;:0};" vertex="1" parent="8bf6KjgSrJrVRL6QDgUB-27">
          <mxGeometry x="30" y="110" width="10" height="80" as="geometry" />
        </mxCell>
        <mxCell id="8bf6KjgSrJrVRL6QDgUB-30" style="edgeStyle=orthogonalEdgeStyle;rounded=0;orthogonalLoop=1;jettySize=auto;html=1;curved=0;exitX=1;exitY=1;exitDx=0;exitDy=-5;exitPerimeter=0;" edge="1" parent="1" source="8bf6KjgSrJrVRL6QDgUB-24" target="8bf6KjgSrJrVRL6QDgUB-28">
          <mxGeometry relative="1" as="geometry">
            <Array as="points">
              <mxPoint x="430" y="170" />
            </Array>
          </mxGeometry>
        </mxCell>
        <mxCell id="8bf6KjgSrJrVRL6QDgUB-31" value="GetData()" style="text;html=1;strokeColor=none;fillColor=none;align=center;verticalAlign=middle;whiteSpace=wrap;rounded=0;" vertex="1" parent="1">
          <mxGeometry x="460" y="140" width="70" height="30" as="geometry" />
        </mxCell>
        <mxCell id="8bf6KjgSrJrVRL6QDgUB-41" value="&amp;nbsp; &amp;nbsp; &amp;nbsp;Home Page" style="shape=umlLifeline;perimeter=lifelinePerimeter;whiteSpace=wrap;html=1;container=1;dropTarget=0;collapsible=0;recursiveResize=0;outlineConnect=0;portConstraint=eastwest;newEdgeStyle={&quot;curved&quot;:0,&quot;rounded&quot;:0};participant=umlBoundary;align=center;" vertex="1" parent="1">
          <mxGeometry x="660" y="50" width="100" height="320" as="geometry" />
        </mxCell>
        <mxCell id="8bf6KjgSrJrVRL6QDgUB-32" value="" style="html=1;points=[[0,0,0,0,5],[0,1,0,0,-5],[1,0,0,0,5],[1,1,0,0,-5]];perimeter=orthogonalPerimeter;outlineConnect=0;targetShapes=umlLifeline;portConstraint=eastwest;newEdgeStyle={&quot;curved&quot;:0,&quot;rounded&quot;:0};" vertex="1" parent="8bf6KjgSrJrVRL6QDgUB-41">
          <mxGeometry x="-240" y="220" width="10" height="50" as="geometry" />
        </mxCell>
        <mxCell id="8bf6KjgSrJrVRL6QDgUB-33" value="IsAccountValid()" style="html=1;align=left;spacingLeft=2;endArrow=block;rounded=0;edgeStyle=orthogonalEdgeStyle;curved=0;rounded=0;exitX=1;exitY=0;exitDx=0;exitDy=5;exitPerimeter=0;" edge="1" target="8bf6KjgSrJrVRL6QDgUB-32" parent="8bf6KjgSrJrVRL6QDgUB-41" source="8bf6KjgSrJrVRL6QDgUB-32">
          <mxGeometry relative="1" as="geometry">
            <mxPoint x="-235" y="200" as="sourcePoint" />
            <Array as="points">
              <mxPoint x="-205" y="225" />
              <mxPoint x="-205" y="240" />
            </Array>
          </mxGeometry>
        </mxCell>
        <mxCell id="8bf6KjgSrJrVRL6QDgUB-40" style="edgeStyle=orthogonalEdgeStyle;rounded=0;orthogonalLoop=1;jettySize=auto;html=1;curved=0;exitX=1;exitY=1;exitDx=0;exitDy=-5;exitPerimeter=0;entryX=0;entryY=1;entryDx=0;entryDy=-5;entryPerimeter=0;" edge="1" parent="8bf6KjgSrJrVRL6QDgUB-41" source="8bf6KjgSrJrVRL6QDgUB-32" target="8bf6KjgSrJrVRL6QDgUB-42">
          <mxGeometry relative="1" as="geometry">
            <mxPoint x="20" y="265" as="targetPoint" />
          </mxGeometry>
        </mxCell>
        <mxCell id="8bf6KjgSrJrVRL6QDgUB-42" value="" style="html=1;points=[[0,0,0,0,5],[0,1,0,0,-5],[1,0,0,0,5],[1,1,0,0,-5]];perimeter=orthogonalPerimeter;outlineConnect=0;targetShapes=umlLifeline;portConstraint=eastwest;newEdgeStyle={&quot;curved&quot;:0,&quot;rounded&quot;:0};" vertex="1" parent="8bf6KjgSrJrVRL6QDgUB-41">
          <mxGeometry x="45" y="190" width="10" height="80" as="geometry" />
        </mxCell>
      </root>
    </mxGraphModel>
  </diagram>
</mxfile>
